<?xml version="1.0" standalone="no"?>
<!DOCTYPE svg PUBLIC "-//W3C//DTD SVG 20010904//EN"
 "http://www.w3.org/TR/2001/REC-SVG-20010904/DTD/svg10.dtd">
<svg version="1.0" xmlns="http://www.w3.org/2000/svg"
 width="400.000000pt" height="400.000000pt" viewBox="0 0 400.000000 400.000000"
 preserveAspectRatio="xMidYMid meet">
<metadata>
Created by potrace 1.14, written by Peter Selinger 2001-2017
</metadata>
<g transform="translate(0.000000,400.000000) scale(0.100000,-0.100000)"
fill="#000000" stroke="none">
<path d="M1356 3688 c-180 -21 -312 -146 -324 -308 -8 -110 38 -205 126 -261
48 -30 176 -75 311 -109 162 -41 208 -86 165 -160 -63 -105 -316 -84 -464 40
l-47 39 -66 -92 -66 -92 27 -24 c111 -99 273 -154 440 -150 166 4 262 37 341
118 120 123 124 325 10 440 -52 52 -212 117 -374 152 -119 25 -172 67 -157
123 4 16 20 38 34 49 76 56 273 26 384 -58 18 -14 36 -25 41 -25 4 1 36 39 71
85 l64 85 -29 24 c-15 14 -54 39 -86 56 -112 61 -253 84 -401 68z"/>
<path d="M2430 3684 c-210 -43 -388 -216 -429 -416 -16 -76 -16 -203 -1 -269
47 -205 214 -369 421 -414 229 -49 450 28 564 198 19 28 35 54 35 57 0 3 -45
28 -101 55 -92 45 -102 47 -111 31 -38 -69 -136 -133 -212 -139 -208 -17 -373
150 -361 366 4 71 18 118 48 170 55 94 146 147 263 155 61 4 80 1 125 -20 57
-27 95 -58 124 -101 9 -15 21 -27 26 -27 9 0 190 87 198 96 7 6 -64 106 -101
140 -51 47 -126 90 -193 110 -76 21 -211 25 -295 8z"/>
<path d="M759 2438 c-58 -20 -93 -47 -117 -93 -13 -26 -16 -80 -17 -375 -1
-340 -4 -377 -35 -400 -3 -3 -31 -37 -62 -76 -91 -115 -89 -145 22 -264 36
-38 64 -78 70 -100 5 -19 9 -185 9 -367 -1 -320 0 -334 21 -375 11 -24 37 -53
56 -66 48 -31 160 -53 227 -43 4 1 7 29 7 64 l0 62 -37 1 c-77 2 -133 15 -143
34 -5 10 -11 165 -12 371 l-3 354 -25 47 c-14 26 -49 72 -79 103 -38 39 -51
59 -44 67 5 7 34 45 64 83 30 39 61 82 68 97 11 21 14 104 14 373 0 336 1 348
21 366 11 11 28 20 38 20 10 1 23 3 28 4 6 1 33 3 60 4 l50 1 0 65 0 65 -64
-2 c-35 -1 -88 -10 -117 -20z"/>
<path d="M3050 2396 l0 -66 43 -1 c102 -1 143 -17 151 -58 3 -14 5 -173 5
-353 0 -292 2 -331 17 -365 10 -21 20 -40 23 -43 6 -5 67 -81 100 -122 11 -15
8 -23 -29 -60 -115 -116 -114 -111 -116 -528 -1 -190 -2 -348 -3 -352 -3 -18
-65 -38 -125 -40 l-67 -3 3 -65 3 -65 60 3 c80 4 132 19 177 51 69 49 70 57
72 453 1 399 -7 358 90 467 58 64 76 96 76 132 0 20 -38 82 -80 129 -12 14
-36 45 -53 68 l-32 44 0 346 0 347 -25 43 c-33 59 -100 91 -208 99 l-82 6 0
-67z"/>
<path d="M2359 2263 c-24 -38 -47 -69 -51 -71 -5 -2 -8 -8 -8 -12 0 -5 -11
-26 -25 -46 l-24 -36 137 -105 c75 -58 142 -110 148 -114 15 -12 166 215 157
237 -3 8 -49 50 -102 93 -121 97 -155 121 -174 121 -8 0 -34 -30 -58 -67z"/>
<path d="M2029 1763 c-84 -125 -229 -343 -323 -483 -94 -140 -173 -259 -175
-265 -2 -5 -26 -40 -52 -77 l-48 -67 47 -39 c26 -21 76 -60 112 -87 36 -27 71
-55 79 -63 20 -19 61 -45 65 -41 2 2 140 211 307 464 167 253 334 505 370 560
l66 100 -56 43 c-31 24 -65 51 -76 60 -36 29 -139 108 -152 116 -8 4 -63 -69
-164 -221z"/>
<path d="M1373 747 c0 -12 -31 -223 -38 -256 -2 -10 -6 -42 -10 -72 -4 -30 -9
-57 -12 -61 -11 -20 2 -13 245 129 l93 55 -48 36 c-26 20 -50 38 -53 41 -3 3
-25 21 -50 40 -25 19 -63 50 -86 68 -22 18 -41 27 -41 20z"/>
</g>
</svg>
